<svg xmlns="http://www.w3.org/2000/svg" width="21.576" height="22.666" viewBox="0 0 21.576 22.666">
    <g>
        <g>
            <path fill="#1d3526" d="M141.378 144.1h-3.9l8.326 21.36 2-4.875c-2.312-5.924-5.822-14.927-6.426-16.485z" transform="translate(0 -1.487) translate(0 1.487) translate(-137.48 -143.215)"/>
            <path fill="#0c6368" d="M182.2 140.738c-2.51 0-4.495 2.873-6.6 8.07l-.9 2.217q-.293.708-.61 1.492l-1.2 2.971-1.085 2.686-2.142 5.231h3.944l9.143-22.59a1.8 1.8 0 0 0-.255-.062c-.095-.011-.195-.015-.295-.015z" transform="translate(0 -1.487) translate(0 1.487) translate(-161.176 -140.738)"/>
        </g>
    </g>
</svg>
